<?xml version="1.0" encoding="UTF-8"?>
<svg id="_레이어_1" data-name="레이어 1" xmlns="http://www.w3.org/2000/svg" viewBox="0 0 450.44 229.11">
  <defs>
    <style>
      .cls-1 {
        fill: #e03b35;
      }

      .cls-2 {
        fill: #3593de;
      }

      .cls-3 {
        fill: #59b48f;
      }

      .cls-4 {
        fill: #2e2e2e;
      }

      .cls-5 {
        fill: #010101;
      }
    </style>
  </defs>
  <path class="cls-3" d="m367.77,137.22c-8.46.05-16.07-1.15-23.43-3.72-7.58-2.65-14.36-6.64-20.22-12.21-7.16-6.81-12.01-15-15.22-24.27-2.21-6.38-3.33-12.94-3.76-19.66-.18-2.72-.34-5.43-.2-8.14.25-4.82.65-9.62,1.59-14.37,1.95-9.85,5.79-18.85,11.87-26.86,2.69-3.54,5.91-6.57,9.39-9.35,5.05-4.03,10.71-6.92,16.73-9.11,2.76-1,5.63-1.65,8.54-2.21,5.52-1.07,11.07-1.44,16.67-1.32,3.88.08,7.69.66,11.51,1.29,5.73.95,11.09,2.91,16.24,5.5,4.65,2.34,8.89,5.29,12.71,8.87,7.19,6.72,12.05,14.89,15.28,24.11,1.81,5.18,2.89,10.5,3.47,15.94.44,4.05.84,8.1.65,12.18-.21,4.54-.62,9.08-1.45,13.55-1.47,7.9-4.33,15.33-8.44,22.23-1.59,2.66-3.43,5.19-5.48,7.55-3.7,4.24-7.88,7.89-12.68,10.84-5.06,3.1-10.45,5.4-16.21,6.87-5.98,1.53-12.04,2.36-17.56,2.29Zm-2.11-94.59c-4.22-.13-9.32,1.71-13.47,4.6-5.47,3.81-8.91,9.13-10.44,15.56-1.51,6.34-1.54,12.73.57,19,2.9,8.63,8.42,14.7,17.29,17.42,4.9,1.5,9.85,1.46,14.75.19,4.24-1.1,7.9-3.29,11.04-6.41,3.7-3.68,6.04-8.09,7.33-13.08,1.25-4.86,1.27-9.79.48-14.73-.83-5.2-2.88-9.88-6.37-13.83-5.18-5.85-11.76-8.68-21.16-8.72Z"/>
  <path class="cls-5" d="m426.01,147.02v26.83c-.41.29-.86.16-1.28.16-33.3,0-66.6,0-99.9,0-39.93,0-79.87,0-119.8,0-56.36,0-112.73-.01-169.09.03-3.34,0-6.4-1.05-9.56-1.8-3.83-.91-7.65-1.88-11.45-2.91-3.37-.91-6-2.78-7.33-6.13-.2-.52-.54-.61-.99-.67-1.82-.25-3.63-.55-5.46-.78-.78-.1-1.17-.46-1.14-1.23.03-.76.44-1.11,1.21-1.2,1.78-.21,3.56-.49,5.34-.74.45-.06.83-.13,1.02-.66,1.28-3.4,3.95-5.3,7.28-6.22,5.85-1.62,11.75-3.07,17.63-4.56.65-.16,1.35-.12,2.03-.12,110.94,0,221.88,0,332.83,0,19.23,0,38.46,0,57.69,0,.28,0,.56,0,.98,0Zm-285.04,8.42c-6.75,0-13.51.05-20.26-.03-1.85-.02-3.03.82-3.94,2.23-1.32,2.04-.83,5.44,1,7.03.73.63,1.52,1.11,2.57,1.1,13.67-.02,27.34-.01,41-.01.65,0,1.25-.11,1.84-.42,2.01-1.03,2.98-2.56,2.88-4.9-.13-3.2-1.84-4.99-5.08-5-6.67,0-13.35,0-20.02,0Z"/>
  <path class="cls-3" d="m293.21,112.11c-11.17,6.09-22.29,12.15-33.63,18.33-11.55-20.83-22.95-41.61-34.29-62.76-11.17,20.81-22.21,41.35-33.27,61.97-2.1-.87-3.85-2.06-5.72-3.02-4.14-2.12-8.21-4.38-12.32-6.57-3.34-1.78-6.66-3.6-9.97-5.43-1.64-.91-3.32-1.75-4.96-2.66-.73-.4-.96-.74-.5-1.44,1.58-2.43,2.58-5.18,4.21-7.6.65-.97,1.01-2.12,1.56-3.16,2.61-4.87,5.14-9.79,7.9-14.57,5.74-9.94,10.9-20.19,16.36-30.28,6.27-11.58,12.42-23.23,18.62-34.85.53-.98,1.09-1.95,1.55-2.97.38-.84.9-1.12,1.84-1.11,9.39.04,18.79.02,28.18.02.4,0,.8.04,1.2,0,.82-.1,1.33.24,1.72.97,3.56,6.68,7.14,13.35,10.73,20.01,2.3,4.27,4.66,8.51,6.97,12.78,3.32,6.12,6.61,12.25,9.92,18.36,2.31,4.25,4.64,8.49,6.96,12.74,5.46,10.02,10.91,20.04,16.36,30.07.19.34.35.7.59,1.17Z"/>
  <path class="cls-3" d="m82.6,134.82c-6.48.05-13.29-.3-20.03-1.5-8.33-1.48-16.36-3.93-23.48-8.65-5.94-3.93-10.44-9.11-12.67-16.02-1.62-5-2.1-10.09-1.24-15.32,1.35-8.19,5.35-14.68,11.97-19.68,4.98-3.76,10.56-6.21,16.45-8.04,6.35-1.97,12.87-2.96,19.49-3.47,5.31-.41,10.62-.45,15.93-.23,5.62.23,11.2.81,16.72,2.02,6.1,1.33,12.03,3.16,17.52,6.14,6.58,3.58,12.01,8.37,15.15,15.41,1.53,3.43,2.41,6.98,2.67,10.7.47,6.76-1.03,13.04-4.58,18.81-1.86,3.01-4.26,5.57-7.06,7.75-5.53,4.31-11.81,6.95-18.53,8.82-4.56,1.27-9.17,2.07-13.84,2.63-4.68.56-9.4.66-14.47.63Zm1.45-44.13c-5.81.04-10.57.36-15.08,2.22-1.92.79-3.64,1.92-4.21,4.09-.77,2.9.89,5.47,4.18,6.87,4.2,1.79,8.63,2.17,13.1,2.29,3.39.09,6.76-.18,10.11-.84,2.46-.49,4.75-1.25,6.84-2.65,3.15-2.12,3.21-6.56-.22-8.79-1.64-1.06-3.44-1.73-5.28-2.13-3.43-.74-6.91-1.19-9.44-1.06Z"/>
  <path class="cls-3" d="m145.74,16.98v37.52h-1.03c-41.13,0-82.27,0-123.4.01-1,0-1.57-.22-1.57-1.39.02-11.75.01-23.5.02-35.26,0-.23.03-.46.05-.67.54-.32,1.07-.2,1.58-.2,13.35,0,26.7-.02,40.05.02,1.1,0,1.53-.21,1.51-1.44-.08-4.72,0-9.43-.06-14.15C62.87.29,63.23,0,64.33,0c12.31.03,24.62.03,36.94,0,1.12,0,1.54.28,1.52,1.48-.07,4.68,0,9.35-.05,14.03-.01,1.13.26,1.5,1.45,1.5,13.47-.04,26.94-.03,40.41-.03.35,0,.71,0,1.15,0Z"/>
  <path class="cls-4" d="m315.96,209.01c-1.77,0-3.4,0-5.02,0-.37,0-.58.15-.78.44-1.95,2.84-4.89,3.86-8.11,4.21-2.72.3-5.43.09-8-.96-4.16-1.69-6.44-5.85-6.05-10.93.49-6.46,4.21-10.05,10.72-10.37,2.54-.13,5.03.07,7.4,1.05,1.86.77,3.38,1.97,4.37,3.74.29.52.63.72,1.23.7,1.35-.04,2.7-.01,4.24-.01,0-1.17-.03-2.27,0-3.37.05-1.48.55-2.04,2.03-2.09,1.87-.06,3.75-.06,5.63,0,1.39.05,1.93.64,1.94,2.05.02,7.15.02,14.3,0,21.45,0,1.43-.5,2.03-1.9,2.1-1.91.1-3.83.09-5.75,0-1.4-.06-1.92-.66-1.94-2.07-.04-1.91,0-3.83,0-5.95Zm-13.39-6.46c-.03-1.87.04-3.75-.5-5.58-.31-1.05-.87-1.84-2.05-1.85-1.19,0-1.81.81-2.03,1.86-.77,3.72-.76,7.45,0,11.17.22,1.04.81,1.82,2.04,1.81,1.23,0,1.73-.8,2.04-1.83.54-1.83.47-3.71.5-5.59Zm9.39-1.89c.24,1.59.12,3.04-.11,4.54h4v-4.54h-3.89Z"/>
  <path class="cls-2" d="m110.86,210.39h-1.78c-.32.43-.19.89-.19,1.31-.01,4.56,0,9.11,0,13.67,0,2.56-.47,3.04-2.98,3.06-1.04,0-2.08-.02-3.12-.04-1.21-.03-1.82-.69-1.92-1.86-.03-.32-.03-.64-.03-.96,0-10.43,0-20.87,0-31.3,0-2.39.46-2.87,2.87-2.89,1.12-.01,2.24,0,3.36.06.96.05,1.57.55,1.68,1.54.07.59.13,1.19.13,1.79.01,3.87,0,7.74,0,11.61.65.28,1.23.15,1.82.12.28-.42.15-.87.15-1.29.01-3.76,0-7.51,0-11.27,0-1.96.51-2.49,2.47-2.54,1.24-.03,2.48,0,3.72.04,1.09.04,1.67.67,1.73,1.75.03.44.03.88.03,1.32,0,10.27,0,20.55,0,30.82,0,.48,0,.96-.05,1.44-.09.97-.64,1.57-1.62,1.6-1.52.05-3.04.08-4.55,0-1.25-.07-1.73-.76-1.73-2.26-.01-4.76,0-9.51,0-14.27,0-.43,0-.87,0-1.43Z"/>
  <path class="cls-2" d="m66.95,200.58c0-2.22,0-4.32,0-6.43,0-2.28.46-2.75,2.72-2.78,1.64-.02,3.28-.02,4.91.04,1.38.05,1.97.64,1.97,2.03.02,7.43.02,14.87,0,22.3,0,1.5-.54,2.05-2.02,2.09-1.84.05-3.68.05-5.51,0-1.5-.04-2.03-.63-2.07-2.18-.03-1.31,0-2.62,0-4.09-2.08,0-4.06,0-6.04.01-.17,0-.39.12-.51.25-1.73,1.82-3.99,2.46-6.35,2.76-3.03.39-6.06.36-9.04-.42-4.6-1.2-6.77-4.68-5.84-9.34.41-2.04,1.58-3.55,3.44-4.5,3.1-1.58,6.42-1.81,9.81-1.59,2.24.15,4.44.55,6.43,1.69.13.08.3.15.45.15,2.51,0,5.01,0,7.66,0Zm-18.46,6.2c-.02.96.02,1.92.35,2.83.31.86.89,1.46,1.85,1.42.89-.03,1.45-.59,1.7-1.44.56-1.88.55-3.77.02-5.65-.25-.87-.81-1.48-1.8-1.47-1.05,0-1.56.69-1.84,1.59-.27.89-.31,1.8-.28,2.72Zm13.75.89h4.65v-3.19h-4.94c.32,1.09.25,2.12.29,3.19Z"/>
  <path class="cls-4" d="m344.91,215.17h-3.07c-3.32,0-6.63-.02-9.95,0-.97,0-1.35-.37-1.36-1.35-.03-2.43-.03-2.46,2.43-2.46,7.15,0,14.31,0,21.46,0h1.25c.34-.36.28-.74.29-1.09.09-4.35.34-8.7.32-13.06,0-1.18-.43-1.51-1.55-1.5-6.31.04-12.63.02-18.94.02-1.55,0-1.65-.11-1.67-1.62-.02-2,.08-2.17,1.62-2.18,8.87-.01,17.74-.02,26.61,0,2.56,0,3.51,1.03,3.54,3.6.05,4.88-.11,9.75-.31,14.62-.01.35,0,.71,0,1.05.35.27.72.15,1.06.16,2.08.02,2.85,1.16,2.14,3.16-.25.71-.84.64-1.39.64-3.96,0-7.91,0-11.87,0h-.97c0,.63,0,1.22,0,1.8,0,3.04.02,6.07-.01,9.11-.02,1.69-.55,2.26-2.21,2.31-1.76.06-3.52.06-5.27,0-1.63-.05-2.12-.57-2.14-2.22-.03-3.24-.01-6.47-.01-9.71,0-.39,0-.78,0-1.29Z"/>
  <path class="cls-5" d="m430.2,174.02v-27c.79,0,1.54,0,2.28,0,2.8,0,5.59.06,8.38-.02,3.11-.08,5.48,1.21,6.94,3.85,3.51,6.36,3.5,12.83.03,19.2-1.49,2.73-3.98,4.02-7.14,3.98-3.47-.04-6.93-.01-10.49-.01Z"/>
  <path class="cls-1" d="m231.63,204.77c-5.65,2.54-11.47,3.33-17.41,3.42-.6,0-1.2.02-1.79-.06-3.27-.42-4.62-1.96-4.63-5.25,0-2.88-.01-5.75,0-8.63,0-1.78.46-2.28,2.2-2.47.44-.05.88-.05,1.32-.05,8.79,0,17.57,0,26.36,0,3.15,0,3.48.34,3.48,3.51,0,3.43.01,6.87,0,10.3-.01,2.08-.53,2.6-2.64,2.65-1.36.03-2.72.03-4.07,0-2.19-.04-2.63-.48-2.74-2.67-.01-.19-.03-.38-.06-.76Zm.06-3.84c0-1.46,0-2.89,0-4.33,0-.74-.4-1.08-1.13-1.08-4.03,0-8.07,0-12.1,0-.8,0-1.17.36-1.16,1.16.02,1.44-.02,2.88.01,4.31.03,1.32.42,1.69,1.77,1.66,1.36-.03,2.71-.09,4.07-.21,2.86-.26,5.69-.67,8.54-1.51Z"/>
  <path class="cls-1" d="m135.67,222.58c-2.73,3.15-6.42,4.45-10.35,5.25-1.62.33-1.87.16-2.37-1.34-.25-.73-.09-1.22.63-1.56,4.06-1.89,5.68-5.38,6.24-9.56.4-2.98.49-5.97.48-8.97-.02-4.2-.02-8.39,0-12.59,0-1.83.53-2.38,2.34-2.43,1.76-.05,3.52-.04,5.27.02,1.43.05,2.01.6,1.99,1.99-.08,6.19.31,12.39-.24,18.57-.17,1.96-.59,3.86-1.22,5.72-.46,1.35.26,2.46,1.68,2.6.65.07,1.27-.07,1.88-.29.8-.28,1.62-.46,2.47-.42,2.41.1,3.82,1.53,3.93,3.94.1,2.25-1.46,4.1-3.73,4.37-3.67.44-6.32-1.14-8.23-4.19-.23-.36-.3-.83-.76-1.12Z"/>
  <path class="cls-2" d="m81.39,208.68c0-4.64,0-9.27,0-13.91,0-2.49.53-3.03,3.03-3.04,4-.02,7.99-.01,11.99,0,.62,0,1.46-.13,1.64.63.21.91.32,1.91-.11,2.81-.19.4-.69.34-1.09.34-1.56,0-3.12.02-4.68,0-1.04-.01-1.52.42-1.52,1.51.02,7.91,0,15.83.02,23.74,0,1.43.38,1.76,1.82,1.68,1.46-.08,2.84-.46,4.11-1.18,1.13-.64,1.47.25,1.94.93.46.66.64,1.3-.13,1.88-3.97,2.97-8.38,4.4-13.35,3.82-1.97-.23-3.1-1.42-3.51-3.39-.23-1.11-.17-2.23-.17-3.34,0-4.16,0-8.31,0-12.47Z"/>
  <path class="cls-1" d="m281.7,207.94c1.16,0,2.39.04,3.62-.01,1.08-.05,1.5.39,1.52,1.46.05,2.17-.06,2.32-2.24,2.32-.99,0-1.98,0-2.91,0-.32.52-.21.97-.21,1.4,0,4.23,0,8.47,0,12.7,0,2.08-.45,2.56-2.51,2.6-1.68.04-3.36.03-5.03-.03-1.48-.06-1.96-.58-2.08-2.06-.03-.4-.02-.8-.02-1.2,0-10.14,0-20.29,0-30.43,0-.48,0-.96.04-1.44.09-1.18.73-1.83,1.93-1.84,1.8-.02,3.59-.06,5.39-.02,1.78.04,2.27.56,2.28,2.33.02,4.27,0,8.55.01,12.82,0,.43-.12.88.21,1.4Z"/>
  <path class="cls-1" d="m160.29,210.02c0,5.2,0,10.39,0,15.59,0,2.33-.44,2.78-2.8,2.82-1.36.02-2.72.02-4.08,0-2.29-.04-2.74-.5-2.75-2.76-.01-3.76,0-7.52,0-11.27,0-6.72,0-13.43,0-20.15,0-2.42.43-2.85,2.87-2.88,1.52-.02,3.04-.02,4.56.03,1.67.06,2.19.62,2.2,2.31.01,5.44,0,10.87,0,16.31Z"/>
  <path class="cls-4" d="m408.57,210.02c0,5.27,0,10.54,0,15.81,0,2.04-.47,2.54-2.53,2.59-1.6.04-3.2.04-4.79-.02-1.78-.06-2.27-.57-2.29-2.33-.03-2.8-.01-5.59-.01-8.39,0-7.79,0-15.57,0-23.36,0-2.52.41-2.93,2.9-2.96,1.4-.02,2.8-.03,4.19.01,2.06.06,2.53.55,2.53,2.59,0,5.35,0,10.7,0,16.05Z"/>
  <path class="cls-4" d="m384.65,217.97c-1.67,0-3.58-.14-5.42-.74-4.46-1.43-6.89-5.34-6.32-10.14.54-4.55,3.16-7.36,7.68-8.25,2.74-.54,5.47-.53,8.18.19,4.59,1.23,7.13,4.71,6.93,9.46-.23,5.39-3.49,8.77-9.01,9.3-.6.06-1.19.1-2.04.17Zm-2.49-10.1c0,1.72,0,3.2.38,4.63.24.9.68,1.67,1.75,1.67,1.07,0,1.54-.73,1.74-1.65.61-2.8.59-5.61.05-8.42-.19-1-.63-1.87-1.83-1.84-1.2.03-1.56.98-1.78,1.94-.29,1.29-.33,2.61-.3,3.68Z"/>
  <path class="cls-1" d="m246.86,208.24c0-5.36,3.16-8.85,8.72-9.59,2.36-.31,4.71-.26,7.02.34,4.61,1.2,7.09,4.45,7.08,9.26-.01,4.76-2.46,7.97-7.04,9.16-2.88.75-5.78.75-8.66.03-4.63-1.16-7.12-4.41-7.13-9.21Zm13.52-.07c-.04-1.31.03-2.71-.32-4.07-.25-.98-.65-1.87-1.85-1.84-1.13.03-1.56.87-1.74,1.82-.51,2.77-.51,5.54,0,8.31.18.95.63,1.78,1.76,1.79,1.14.01,1.55-.83,1.8-1.76.37-1.36.3-2.77.34-4.24Z"/>
  <path class="cls-1" d="m174.89,191.97c2.56,0,5.11-.03,7.67,0,2.37.03,2.87.57,2.89,2.92.01,2.36.1,4.72-.51,7.03-.97,3.68-3.2,6.37-6.5,8.21-3.96,2.2-8.31,2.97-12.75,3.34-1.03.09-1.41-.53-1.65-2.16-.16-1.05.64-.95,1.2-1.07,2.04-.44,4.02-1.03,5.83-2.09,3-1.75,4.54-4.4,4.79-7.82.08-1.03.03-2.08.07-3.11.05-1.1-.48-1.49-1.52-1.47-2.52.03-5.04-.03-7.55.03-1.12.02-1.59-.37-1.57-1.53.03-2.02.11-2.25,1.56-2.27,2.68-.03,5.35,0,8.03,0Z"/>
  <path class="cls-1" d="m198.25,204.68c0,2.31,0,4.46,0,6.61,0,2.46-.45,2.91-2.96,2.92-1.44,0-2.88.03-4.32-.02-1.74-.06-2.34-.62-2.35-2.33-.03-6-.03-11.99,0-17.99,0-1.68.57-2.19,2.28-2.24,1.68-.05,3.36-.05,5.04,0,1.83.05,2.29.56,2.3,2.44.02,2.23,0,4.47,0,6.89,1.27,0,2.45-.01,3.64,0,1.6.02,1.73.18,1.71,1.97-.01,1.61-.14,1.75-1.67,1.76-1.16,0-2.31,0-3.68,0Z"/>
  <path class="cls-4" d="m309.58,228.38c-4.59,0-9.19,0-13.78,0-.8,0-1.59-.06-2.37-.27-1.49-.42-2.42-1.37-2.66-2.91-.39-2.54-.2-5.1-.13-7.65.03-1.02.67-1.6,1.7-1.67,2.04-.13,4.07-.12,6.11,0,1.08.06,1.7.66,1.73,1.75.05,1.72.05,3.43.08,5.15.03,1.53.28,1.8,1.84,1.8,7.11,0,14.22,0,21.34,0,1.99,0,2.84,1.31,2.09,3.2-.27.68-.88.58-1.43.58-4.83,0-9.67,0-14.5,0Z"/>
  <path class="cls-2" d="m60.36,228.38c-4.68,0-9.35,0-14.03,0-.76,0-1.51-.05-2.25-.25-1.61-.43-2.54-1.48-2.77-3.1-.31-2.19-.16-4.39-.12-6.58.02-1.18.63-1.86,1.83-1.95,1.99-.16,3.99-.15,5.98,0,1.29.09,1.79.94,1.83,2.11.05,1.32.02,2.64.03,3.96,0,1.87.16,2.02,2.08,2.02,7.16,0,14.31,0,21.47,0,2.03,0,2.85,1.23,2.12,3.19-.26.7-.87.6-1.42.6-4.92,0-9.83,0-14.75,0Z"/>
  <path class="cls-1" d="m230.73,214.41c0,1.48.03,2.8,0,4.11-.05,1.79-.64,2.36-2.41,2.39-1.64.03-3.28.03-4.92,0-1.66-.04-2.25-.57-2.33-2.22-.07-1.38-.01-2.77-.01-4.28-1.77,0-3.39,0-5.02,0-3,0-6,0-8.99,0-.62,0-1.46.14-1.6-.67-.17-.91-.34-1.92.16-2.8.21-.37.7-.32,1.1-.32,11.87,0,23.74,0,35.61,0,.98,0,1.4.42,1.35,1.37-.01.28,0,.56,0,.84-.02,1.37-.22,1.59-1.62,1.6-3.4.02-6.79,0-10.19,0-.31,0-.63,0-1.1,0Z"/>
  <path class="cls-1" d="m225.9,228.38c-4.35,0-8.71,0-13.06,0-.8,0-1.59-.05-2.37-.26-1.5-.41-2.43-1.35-2.69-2.88-.39-2.26-.2-4.54-.14-6.81.02-.94.57-1.57,1.55-1.67,2.15-.22,4.3-.22,6.45,0,.98.1,1.5.71,1.54,1.68.05,1.32.08,2.63.09,3.95.02,2.05.15,2.2,2.16,2.21,6.59,0,13.18,0,19.77,0,1.96,0,2.88,1.44,2.06,3.22-.3.65-.9.56-1.45.56-4.63,0-9.27,0-13.9,0Z"/>
  <path class="cls-1" d="m182.07,216.06c4.24,0,8.47,0,12.71,0,.56,0,1.12.02,1.68.06,1.07.08,1.74.63,1.75,1.73.03,3.12.02,6.23,0,9.35,0,.97-.48,1.63-1.47,1.73-2.19.22-4.38.23-6.57,0-1.21-.12-1.53-1.03-1.55-2.07-.03-1.76-.02-3.52-.02-5.28,0-1.53-.25-1.79-1.82-1.79-6.04,0-12.07,0-18.11,0-1.9,0-2.72-1.34-1.95-3.15.29-.7.91-.57,1.44-.57,3.28-.02,6.56-.01,9.83-.01,1.36,0,2.72,0,4.08,0Z"/>
  <path class="cls-4" d="m379.5,223.4c0-.89,0-1.6,0-2.31,0-1.14.54-1.81,1.7-1.91,1.99-.18,3.99-.17,5.98-.02,1.42.11,1.85.65,1.93,2.09.04.67,0,1.34,0,2.15,2.27,0,4.45,0,6.64,0,1.83,0,2.82,1.66,1.95,3.28-.3.56-.87.5-1.38.5-2.8,0-5.59,0-8.39,0-5.11,0-10.23,0-15.34,0-1.62,0-1.7-.11-1.69-1.97,0-1.64.15-1.81,1.74-1.81,2.23,0,4.47,0,6.86,0Z"/>
  <path class="cls-1" d="m263.09,223.39c2.14,0,4.09-.01,6.04,0,1.46.01,1.63.23,1.63,1.96,0,1.62-.16,1.82-1.62,1.82-7.23,0-14.46,0-21.69,0-1.4,0-1.54-.18-1.54-1.76,0-1.8.13-2,1.55-2.02,1.95-.02,3.89,0,5.97,0,0-.84-.02-1.54,0-2.25.04-1.23.67-1.97,1.91-2,1.91-.05,3.83-.1,5.74,0,1.45.08,1.85.58,1.98,2.05.06.67.01,1.35.01,2.2Z"/>
  <path class="cls-2" d="m45.69,193.26c.32-2.79.47-2.86,3.62-2.94,1.04-.03,2.08-.01,3.11,0,2.49.03,2.86.38,3.07,2.89.25.29.59.19.9.19,1.64,0,3.27,0,4.91,0,2.1,0,2.8,1.01,2.16,3.06-.22.71-.74.74-1.32.74-2.32,0-4.63,0-6.95,0-5.31,0-10.62-.02-15.93.02-1.12,0-1.59-.37-1.57-1.53.03-2.01.13-2.25,1.56-2.28,2.08-.04,4.15-.03,6.23-.05.07,0,.14-.07.2-.1Z"/>
  <path class="cls-1" d="m253.29,193.21c.45-2.63.74-2.87,3.28-2.88,1.16,0,2.32,0,3.47,0,2.43.01,2.67.23,3.19,2.88,1.67,0,3.37,0,5.08,0,2.11,0,2.78.98,2.16,3.04-.24.81-.85.73-1.44.73-4.39,0-8.78,0-13.18,0-2.79,0-5.59-.03-8.38.01-1.07.02-1.51-.38-1.52-1.46-.02-2.18.08-2.32,2.24-2.33,1.67,0,3.34,0,5.08,0Z"/>
  <path class="cls-4" d="m379.39,193.22c.29-2.58.62-2.87,3.12-2.88,1.16,0,2.32,0,3.48,0,2.58,0,2.9.27,3.24,2.88,1.8,0,3.62-.02,5.45.01.61,0,1.44-.21,1.72.5.35.89.31,1.88,0,2.81-.15.45-.63.44-1.03.44-7.39,0-14.78,0-22.17,0-.81,0-1.11-.37-1.14-1.17-.1-2.56-.1-2.59,2.52-2.59,1.59,0,3.19,0,4.83,0Z"/>
</svg>